<svg width="200" height="100" version="1.1" viewBox="0 0 52.917 26.458" xmlns="http://www.w3.org/2000/svg"><g fill="#fff"><g stroke-width=".17781" aria-label="GodotID"><path d="m24.446 11.864q-0.77526 0-1.1238 0.43386-0.3414 0.42675-0.3414 1.1736 0 0.36274 0.08535 0.66146 0.08535 0.29161 0.25605 0.50499 0.1707 0.21338 0.42675 0.33429 0.25605 0.1138 0.59745 0.1138 0.18493 0 0.31295-0.0071 0.13514-0.0071 0.23471-0.02845v-1.7141h1.1096v2.4396q-0.19915 0.07824-0.64013 0.16359-0.44098 0.09246-1.0882 0.09246-0.55478 0-1.01-0.1707-0.44809-0.1707-0.76815-0.49788-0.32006-0.32718-0.49788-0.80372-0.1707-0.47654-0.1707-1.0882 0-0.61879 0.19204-1.0953t0.52633-0.80372q0.33429-0.33429 0.78238-0.50499 0.4552-0.1707 0.9673-0.1707 0.34851 0 0.6259 0.04979 0.2845 0.04268 0.48365 0.10669 0.20626 0.0569 0.33429 0.12091 0.13514 0.06401 0.19204 0.09958l-0.32006 0.88906q-0.2276-0.12091-0.52633-0.20626-0.29161-0.09246-0.64013-0.09246z"/><path d="m30.463 14.061q0 0.44098-0.12802 0.81083-0.12803 0.36274-0.36985 0.6259-0.24183 0.25605-0.58323 0.3983-0.33429 0.14225-0.75393 0.14225-0.41253 0-0.75393-0.14225-0.33429-0.14225-0.57612-0.3983-0.24182-0.26316-0.37696-0.6259-0.13514-0.36985-0.13514-0.81083t0.13514-0.80372q0.14225-0.36274 0.38408-0.61879 0.24894-0.25605 0.58323-0.3983 0.3414-0.14225 0.7397-0.14225 0.40541 0 0.7397 0.14225 0.3414 0.14225 0.58323 0.3983 0.24182 0.25605 0.37696 0.61879 0.13514 0.36274 0.13514 0.80372zm-1.0811 0q0-0.49076-0.19915-0.76815-0.19204-0.2845-0.55478-0.2845-0.36274 0-0.56189 0.2845-0.19915 0.27739-0.19915 0.76815t0.19915 0.78238q0.19915 0.2845 0.56189 0.2845 0.36274 0 0.55478-0.2845 0.19915-0.29161 0.19915-0.78238z"/><path d="m32.184 14.04q0 0.49076 0.22049 0.78949 0.22049 0.29873 0.65435 0.29873 0.14225 0 0.26316-0.0071 0.12091-0.01423 0.19915-0.02845v-1.9275q-0.09957-0.06401-0.26316-0.10669-0.15648-0.04268-0.32006-0.04268-0.75393 0-0.75393 1.0242zm2.3969 1.7781q-0.14225 0.04268-0.32718 0.08535-0.18493 0.03556-0.39119 0.06401-0.19915 0.02845-0.41253 0.04268-0.20626 0.02134-0.3983 0.02134-0.46231 0-0.82505-0.13514-0.36274-0.13514-0.61168-0.38408-0.24894-0.25605-0.38408-0.61168-0.12803-0.36274-0.12803-0.81083 0-0.4552 0.1138-0.81794 0.1138-0.36985 0.32718-0.6259 0.21338-0.25605 0.51921-0.39119 0.31295-0.13514 0.71125-0.13514 0.22049 0 0.39119 0.04267 0.17781 0.04268 0.35563 0.12091v-1.6928l1.0598-0.1707z"/><path d="m39.076 14.061q0 0.44098-0.12802 0.81083-0.12802 0.36274-0.36985 0.6259-0.24183 0.25605-0.58323 0.3983-0.33429 0.14225-0.75393 0.14225-0.41253 0-0.75393-0.14225-0.33429-0.14225-0.57611-0.3983-0.24183-0.26316-0.37696-0.6259-0.13514-0.36985-0.13514-0.81083t0.13514-0.80372q0.14225-0.36274 0.38408-0.61879 0.24894-0.25605 0.58323-0.3983 0.3414-0.14225 0.7397-0.14225 0.40541 0 0.7397 0.14225 0.3414 0.14225 0.58323 0.3983t0.37696 0.61879q0.13514 0.36274 0.13514 0.80372zm-1.0811 0q0-0.49076-0.19915-0.76815-0.19204-0.2845-0.55478-0.2845-0.36274 0-0.56189 0.2845-0.19915 0.27739-0.19915 0.76815t0.19915 0.78238q0.19915 0.2845 0.56189 0.2845 0.36274 0 0.55478-0.2845 0.19915-0.29161 0.19915-0.78238z"/><path d="m39.858 11.266 1.0598-0.1707v1.1024h1.2731v0.88195h-1.2731v1.3158q0 0.33429 0.1138 0.53344 0.12091 0.19915 0.47654 0.19915 0.1707 0 0.34851-0.02845 0.18493-0.03556 0.33429-0.09246l0.14936 0.82505q-0.19204 0.07824-0.42675 0.13514-0.23471 0.0569-0.57612 0.0569-0.43386 0-0.71836-0.1138-0.2845-0.12091-0.4552-0.32718-0.1707-0.21338-0.24183-0.5121-0.06401-0.29873-0.06401-0.66146z"/><path d="m43.123 11.01h1.1096v4.929h-1.1096z"/><path d="m46.48 15.036q0.07824 0.0071 0.17781 0.01422 0.10669 0 0.24894 0 0.83216 0 1.2305-0.41964 0.40541-0.41964 0.40541-1.1593 0-0.77526-0.38408-1.1736t-1.2162-0.3983q-0.1138 0-0.23471 0.0071-0.12091 0-0.2276 0.01422zm3.2077-1.5648q0 0.64013-0.19915 1.1167-0.19915 0.47654-0.569 0.78949-0.36274 0.31295-0.88906 0.46943-0.52633 0.15648-1.1807 0.15648-0.29872 0-0.69703-0.02845-0.3983-0.02134-0.78238-0.09957v-4.801q0.38408-0.07113 0.7966-0.09246 0.41964-0.02845 0.71836-0.02845 0.63301 0 1.1451 0.14225 0.51921 0.14225 0.88906 0.44809 0.36985 0.30584 0.569 0.78238 0.19915 0.47654 0.19915 1.1451z"/></g><path d="m9.9919 5.9866c-0.70167 0.15599-1.3955 0.37323-2.0462 0.70078 0.014881 0.57462 0.052107 1.1252 0.12741 1.6845-0.25272 0.16191-0.51864 0.30096-0.75469 0.4905-0.23984 0.18451-0.4845 0.36114-0.70167 0.57693-0.43386-0.28697-0.8933-0.55673-1.3664-0.79478-0.50993 0.54878-0.98668 1.141-1.3762 1.8039 0.3061 0.48048 0.63463 0.96347 0.93868 1.3401v4.0679l-0.00446 0.53817c0.00103 0.24101 0.00446 0.50476 0.00446 0.55733 0 2.3684 3.0042 3.5069 6.7369 3.5199h9e-3c3.7327-0.01309 6.7361-1.1516 6.7361-3.5199 0-0.05354 0.0033-0.31618 0.0045-0.55733l-0.0045-0.53817v-0.32477l0.0013-4.45e-4v-3.7427c0.35118-0.44209 0.68346-0.9298 0.93824-1.3401-0.38944-0.66281-0.8663-1.2551-1.3762-1.8039-0.47293 0.23805-0.93251 0.50782-1.3664 0.79478-0.2171-0.21579-0.46149-0.39242-0.70167-0.57693-0.23598-0.18954-0.502-0.32859-0.75424-0.4905 0.075099-0.55926 0.11246-1.1098 0.12741-1.6845-0.65082-0.32755-1.3451-0.54479-2.0471-0.70078-0.28028 0.47107-0.53635 0.98128-0.75959 1.48-0.26471-0.044233-0.53071-0.060538-0.79701-0.063707v-4.455e-4c-0.0019 0-0.0038 4.455e-4 -0.0053 4.455e-4 -0.0016 0-0.0033-4.455e-4 -0.0049-4.455e-4v4.455e-4c-0.26678 0.00317-0.53268 0.019473-0.79746 0.063707-0.22313-0.49869-0.47938-1.0089-0.76008-1.48z" stroke-width=".2281"/></g></svg>
